<svg width="71" height="71" viewBox="0 0 71 71" fill="none" xmlns="http://www.w3.org/2000/svg">
<path d="M32.9103 3.29559C29.1633 4.51449 27.1544 8.26147 28.2152 12.1213C29.1407 15.5974 32.82 17.8772 36.3864 17.2C41.9166 16.1843 44.1512 9.59323 40.4268 5.30451C38.779 3.40845 35.3706 2.48299 32.9103 3.29559Z" fill="#E8713F"/>
<path d="M27.2446 50.8326C27.3123 52.2546 27.5606 56.5659 27.7638 60.4258C27.9669 64.263 28.1701 67.5586 28.2378 67.7166C28.3055 67.9423 29.7953 67.9875 35.1449 67.9423L41.9843 67.8746L42.368 61.4415C42.5711 57.8977 42.8194 53.4961 42.9323 51.6452C36 49.5 36 50 27.2446 50.8326Z" fill="#E8713F"/>
<path fill-rule="evenodd" clip-rule="evenodd" d="M19 23.1208C19 21.0334 20.6922 19.3412 22.7795 19.3412H47.5827C49.6701 19.3412 51.3622 21.0334 51.3622 23.1208V47.9239C51.3622 50.0113 49.6701 51.7035 47.5827 51.7035H22.7795C20.6922 51.7035 19 50.0113 19 47.9239V23.1208ZM41.8986 43.4908C41.7219 43.4908 41.5773 43.4346 41.4649 43.3222C41.3524 43.2097 41.2962 43.0652 41.2962 42.8885V27.2271C41.2962 27.0504 41.3524 26.9058 41.4649 26.7934C41.5773 26.6809 41.7219 26.6247 41.8986 26.6247H45.1272C45.3039 26.6247 45.4485 26.6809 45.5609 26.7934C45.6734 26.9058 45.7296 27.0504 45.7296 27.2271V42.8885C45.7296 43.0652 45.6734 43.2097 45.5609 43.3222C45.4485 43.4346 45.3039 43.4908 45.1272 43.4908H41.8986ZM22.7237 43.3463C22.8361 43.4426 22.9566 43.4908 23.0851 43.4908H26.0487C26.3218 43.4908 26.5145 43.4346 26.627 43.3222C26.7394 43.1937 26.8117 43.0812 26.8438 42.9849L27.7594 40.5272H34.1926L35.1323 42.9849C35.1645 43.0812 35.2367 43.1937 35.3492 43.3222C35.4777 43.4346 35.6624 43.4908 35.9034 43.4908H38.867C39.0115 43.4908 39.132 43.4426 39.2284 43.3463C39.3408 43.2338 39.3971 43.1134 39.3971 42.9849C39.3971 42.9045 39.381 42.8323 39.3489 42.768L33.7108 27.2993C33.6626 27.1226 33.5582 26.97 33.3975 26.8415C33.253 26.697 33.0441 26.6247 32.7711 26.6247H29.2051C28.932 26.6247 28.7152 26.697 28.5545 26.8415C28.41 26.97 28.3136 27.1226 28.2654 27.2993L22.6032 42.768C22.5871 42.8323 22.5791 42.9045 22.5791 42.9849C22.5791 43.1134 22.6273 43.2338 22.7237 43.3463ZM33.2289 37.0576H28.7473L30.964 30.6967L33.2289 37.0576Z" fill="#FF824C"/>
</svg>
