<svg width="32" height="32" viewBox="0 0 32 32" fill="none" xmlns="http://www.w3.org/2000/svg">
<path d="M17.3336 8.07063C17.2396 8.10981 17.1299 8.18817 17.0985 8.24302C17.0593 8.29787 17.0123 9.17548 16.9888 10.1863L16.9496 12.0277L16.6362 12.0512C11.1354 12.396 7.48396 15.2169 5.76007 20.4591C5.36828 21.6501 5 23.4915 5 24.2908C5 24.7609 5.02351 24.8471 5.17239 24.949C5.61119 25.2546 5.89328 25.0117 6.06567 24.1732C6.3791 22.5982 7.53097 21.0389 9.13731 20.0046C9.725 19.6285 10.8455 19.1113 11.6213 18.8606C12.9455 18.4374 15.0455 18.1005 16.4168 18.1005H16.9888V19.887C16.9888 21.3288 17.0123 21.705 17.1063 21.8382C17.2552 22.0497 17.4825 22.1046 17.7175 21.9792C17.8821 21.893 20.0996 20.1221 23.4142 17.4109C23.9078 17.0113 24.6444 16.4079 25.0519 16.0788C26 15.3031 26 15.3031 26 15.0523C26 14.7859 25.8981 14.6919 23.9627 13.1169C23.1243 12.4352 21.5101 11.1266 20.3739 10.2098C18.0701 8.33705 17.6235 7.99227 17.553 8.0001C17.5216 8.0001 17.4198 8.03145 17.3336 8.07063Z" fill="white"/>
</svg>
