<svg width="90" height="90" viewBox="0 0 90 90" fill="none" xmlns="http://www.w3.org/2000/svg">
<path fill-rule="evenodd" clip-rule="evenodd" d="M25.4655 27.233L13.6381 31.5379C10.5242 32.6712 8.91872 36.1143 10.0521 39.2281L20.5684 68.1214C21.7017 71.2352 25.1448 72.8408 28.2586 71.7074L48.0569 64.5014C48.5798 64.3111 49.0602 64.0556 49.4922 63.7475H31.4655C28.1518 63.7475 25.4655 61.0612 25.4655 57.7475V27.233Z" fill="#FFAC88"/>
<path fill-rule="evenodd" clip-rule="evenodd" d="M39.5077 63.7475C39.9397 64.0556 40.4201 64.3111 40.943 64.5014L60.7413 71.7074C63.8551 72.8408 67.2982 71.2353 68.4316 68.1214L78.9478 39.2281C80.0812 36.1143 78.4757 32.6712 75.3618 31.5379L63.0688 27.0636V57.7475C63.0688 61.0612 60.3825 63.7475 57.0688 63.7475H39.5077Z" fill="#E8713F"/>
<rect x="28" y="19" width="33.0688" height="42.7475" rx="6" fill="#FF824C"/>
</svg>
