<svg width="24" height="24" viewBox="0 0 24 24" fill="none" xmlns="http://www.w3.org/2000/svg">
<path d="M5.26957 2.62501C4.7851 3.00751 4.88199 3.72751 5.441 3.96001L5.73913 4.08751V4.99501V5.91001L5.43354 5.79751C4.70311 5.55001 3.94286 5.61751 3.25715 5.98501C2.75777 6.25501 2.20622 6.88501 2.00497 7.41001C1.75156 8.06251 1.76646 8.89501 2.04969 9.48751C2.31802 10.0575 3.30932 11.07 4.13665 11.6175C4.92671 12.135 6.67081 13.0125 7.79628 13.455L8.70559 13.8075L9.27205 14.535C9.5851 14.9325 9.98758 15.42 10.159 15.6225L10.4795 15.975H12.0745H13.6696L13.9901 15.615C14.1615 15.42 14.564 14.94 14.8696 14.5425L15.436 13.8225L16.3453 13.4625C17.5081 12.9975 19.2447 12.12 20.005 11.6175C20.7205 11.145 21.6 10.32 21.9056 9.83251C22.5615 8.81251 22.4422 7.48501 21.6149 6.57751C20.8472 5.73001 19.759 5.43751 18.7155 5.79751L18.4099 5.91001V4.99501V4.08751L18.7081 3.96001C19.2671 3.72751 19.364 3.00751 18.8795 2.62501C18.6932 2.47501 18.5888 2.47501 12.0745 2.47501C5.56025 2.47501 5.45591 2.47501 5.26957 2.62501ZM5.18758 7.45501C5.69441 7.80001 5.93292 8.20501 6.29069 9.30751C6.4323 9.74251 6.67827 10.38 6.84969 10.725C7.01367 11.07 7.13292 11.37 7.11056 11.3925C7.05094 11.46 5.68696 10.7325 4.98634 10.26C4.22609 9.75001 3.54038 9.03751 3.43603 8.64751C3.33168 8.26501 3.44348 7.89001 3.75653 7.58251C4.16646 7.18501 4.72547 7.13251 5.18758 7.45501ZM19.9081 7.27501C19.9826 7.27501 20.1839 7.39501 20.3478 7.54501C20.7056 7.86751 20.8249 8.24251 20.713 8.64751C20.6087 9.03751 19.923 9.75001 19.1627 10.26C18.4621 10.7325 16.9938 11.52 16.9938 11.4225C16.9938 11.3925 17.128 11.0775 17.2994 10.7325C17.4634 10.38 17.7168 9.74251 17.8584 9.30751C18.2236 8.20501 18.3354 8.00251 18.8795 7.50751C19.0733 7.32751 19.4832 7.19251 19.6621 7.24501C19.7217 7.26001 19.8261 7.27501 19.9081 7.27501Z" fill="#FF824C"/>
<path d="M9.31677 17.6175C8.49689 17.8725 8.12422 18.435 8.12422 19.425C8.12422 19.9275 8.12422 19.9275 7.89317 19.995C7.56522 20.0925 7.34161 20.4075 7.34161 20.7825C7.34161 21.0375 7.38633 21.1275 7.58758 21.3075L7.82609 21.525H12.0745H16.323L16.5615 21.3075C16.7627 21.1275 16.8075 21.0375 16.8075 20.7825C16.8075 20.4075 16.5838 20.0925 16.2559 19.995L16.0248 19.9275V19.3875C16.0248 18.48 15.5925 17.835 14.8398 17.625C14.5267 17.535 9.6 17.535 9.31677 17.6175Z" fill="#FF824C"/>
</svg>
