<svg width="90" height="90" viewBox="0 0 90 90" fill="none" xmlns="http://www.w3.org/2000/svg">
<path d="M27 45.6929V61C27 65.4183 30.5817 69 35 69H45.2299H55.4598C59.8781 69 63.4598 65.4183 63.4598 61V52.4631V37.8166C63.4598 36.5991 62.9615 35.4348 62.0807 34.5943C61.304 33.865 58.1811 30.8208 55.1058 27.8242L51.8732 24.6647C50.3786 23.2038 48.3715 22.3859 46.2814 22.3859H38.2708H35C30.5817 22.3859 27 25.9676 27 30.3859V45.6929ZM54.7887 29.7902C57.6421 32.66 60.0675 35.1175 60.1467 35.2602C60.2894 35.5298 59.9882 35.5456 54.8204 35.5456C51.8 35.5456 49.3515 33.096 49.3515 30.0756C49.3515 27.0631 49.399 24.6056 49.4624 24.6056C49.5258 24.6056 51.9195 26.9363 54.7887 29.7902ZM45.0555 44.9319C45.975 49.5933 46.8151 54.0327 46.8151 54.2071C46.8151 54.3498 46.5615 54.4133 45.9433 54.4133C44.9604 54.4133 44.9604 54.4291 44.6751 53.0022L44.672 52.9866C44.5713 52.4736 44.135 52.0947 43.613 52.0667C42.6143 52.0191 42.7094 51.9081 42.3607 53.4937C42.2504 54.027 41.7798 54.4133 41.2352 54.4133C40.7279 54.4133 40.3158 54.3657 40.3158 54.3181C40.3158 54.2706 40.5218 53.2558 40.7913 52.0667C41.045 50.8776 41.5047 48.6737 41.8217 47.1992C42.1388 45.7088 42.4241 44.4087 42.4558 44.2977C42.5034 44.1708 42.8997 44.1074 43.7081 44.1074H44.0575C44.5448 44.1074 44.9635 44.4533 45.0555 44.9319ZM49.9855 49.2603V53.4621C49.9855 53.9874 49.5597 54.4133 49.0344 54.4133C48.5091 54.4133 48.0833 53.9874 48.0833 53.4621V49.2603V45.0585C48.0833 44.5333 48.5091 44.1074 49.0344 44.1074C49.5597 44.1074 49.9855 44.5333 49.9855 45.0585V49.2603Z" fill="#FF824C"/>
<path d="M43.2642 48.2773C43.1689 48.8144 43.0784 49.323 43.0081 49.6895C42.9368 50.0612 42.964 50.4288 43.3421 50.4454C43.4044 50.4481 43.4734 50.4495 43.5495 50.4495C44.1995 50.4495 44.2787 50.4178 44.2629 50.0848C44.247 49.5616 43.7398 46.6759 43.6288 46.5808C43.5812 46.5332 43.4227 47.2943 43.2642 48.2773Z" fill="#FF824C"/>
</svg>
