<svg width="90" height="90" viewBox="0 0 90 90" fill="none" xmlns="http://www.w3.org/2000/svg">
<path d="M29.8658 20.6003C28.6511 21.0688 27.3497 22.3355 26.7423 23.6196L26.2565 24.6607V38.7162V52.7716L26.7597 53.7954C27.4017 55.0968 28.3735 56.0686 29.6228 56.6585L30.5946 57.1097H49.4219H68.2493L69.3425 56.5197C70.5745 55.843 71.2513 55.1662 71.9454 53.8475L72.4139 52.9451V38.7162V24.4872L71.928 23.4981C71.3207 22.2661 70.0192 21.0688 68.7525 20.6003C67.8155 20.2358 67.5552 20.2358 49.2831 20.2532C31.2193 20.2532 30.7507 20.2706 29.8658 20.6003ZM67.3817 25.1292L67.8155 25.5283L67.7808 33.8748L67.7287 42.204L64.2582 38.1435C62.3495 35.9224 60.4928 33.8228 60.1457 33.5104C59.226 32.6602 57.8031 32.2784 56.6232 32.5387C56.12 32.6602 55.4606 32.9725 55.0962 33.2675C54.7491 33.5625 52.5454 36.0959 50.2201 38.8897C47.8776 41.6834 45.8994 44.0086 45.8126 44.0607C45.7432 44.1301 44.9624 43.4534 44.1121 42.6031C43.2618 41.7355 42.2554 40.8679 41.8736 40.6596C40.9713 40.1738 39.3749 40.1564 38.4032 40.6249C37.9867 40.8158 36.3035 42.3255 34.2906 44.3383L30.8549 47.7221V36.738C30.8549 29.3112 30.9069 25.6498 31.0457 25.4242C31.1498 25.2333 31.3928 25.0078 31.601 24.921C31.8092 24.8342 39.8261 24.7648 49.4566 24.7648L66.9305 24.7475L67.3817 25.1292Z" fill="#EBDFDF"/>
<path d="M35.7483 27.6279C34.1519 28.4262 33.2322 29.8838 33.2322 31.6884C33.2148 33.5278 34.1172 35.0201 35.783 35.905C36.7894 36.4256 38.8023 36.4256 39.8087 35.905C41.4746 35.0201 42.3769 33.5278 42.3595 31.6884C42.3422 29.1029 40.3987 27.1768 37.7959 27.1768C36.9109 27.1768 36.4424 27.2809 35.7483 27.6279Z" fill="#EBDFDF"/>
<path d="M19.8535 45.8653C18.3438 50.9149 17.0771 55.4092 17.025 55.8603C16.8342 57.5262 17.7538 59.539 19.142 60.4934C20.027 61.1008 20.669 61.309 27.7315 63.183C30.8375 64.016 35.3665 65.2133 37.7959 65.8727C40.2252 66.5321 44.3377 67.6253 46.9059 68.302C49.4914 68.9961 52.7189 69.8811 54.1071 70.2628C58.0808 71.3907 59.6772 71.2519 61.4819 69.6555C62.3322 68.9267 62.5924 68.3541 63.6509 65.005C64.1542 63.426 64.6574 61.8296 64.7789 61.4478L65.0044 60.7537L47.2703 60.6669L29.5535 60.5802L28.5644 60.1811C25.8574 59.0879 23.9833 57.1097 23.1157 54.4201C22.8381 53.5698 22.786 52.494 22.7166 45.0671L22.6125 36.6859L19.8535 45.8653Z" fill="#EBDFDF"/>
</svg>
