<svg width="43" height="43" viewBox="0 0 43 43" fill="none" xmlns="http://www.w3.org/2000/svg">
<path d="M14.5073 2.05313C9.14792 4.04375 5.31979 7.51459 2.71667 12.8229C1.44062 15.375 0.499979 17.805 0.499979 21.5C0.499979 25.5 1.44062 27.574 2.81875 30.4323C4.75833 34.3625 8.6375 38.2417 12.5677 40.1813C15.426 41.5594 18 42.5 21.5 42.5C25.5 42.5 27.574 41.5594 30.4323 40.1813C34.3625 38.2417 38.2417 34.3625 40.1812 30.4323C41.5594 27.574 42.5 25.5 42.5 21.5C42.5 18 41.5594 15.426 40.1812 12.5677C38.2417 8.6375 34.3625 4.75834 30.4323 2.8698C27.7781 1.54271 25.5 1.07598 22.5 1.00003C18.4677 0.897945 16.6 1.28751 14.5073 2.05313ZM20.4792 16.4979C21.2958 17.0083 21.7042 17.0083 22.5208 16.4979C24.1031 15.5281 26.6552 15.7323 27.9823 17.0083C29.6156 18.5396 29.5135 21.1427 27.8292 23.6438C26.349 25.7365 22.4698 29.1563 21.5 29.1563C20.5302 29.1563 16.651 25.7365 15.1708 23.6438C13.5375 21.2448 13.4354 18.6927 14.9667 17.0594C16.1917 15.7323 18.8458 15.4771 20.4792 16.4979Z" fill="#FF824C"/>
</svg>
