<svg width="24" height="24" viewBox="0 0 24 24" fill="none" xmlns="http://www.w3.org/2000/svg">
<path d="M4.96674 3.28582C2.8763 4.34394 1.81818 6.12469 1.81818 8.60224C1.81818 10.3572 2.74726 12.5508 4.99255 15.2349C6.59263 17.1963 11.5219 21.4546 12.1413 21.4546C12.7865 21.4546 17.69 17.1963 19.2901 15.2349C20.116 14.2542 21.1741 12.7315 21.6386 11.8282C22.2624 10.6153 22.4789 9.71198 22.4129 8.29255C22.3096 6.07307 21.6644 4.8601 19.9611 3.69875C19.0836 3.07936 18.0771 2.74386 16.7867 2.74386C14.9802 2.74386 14.4382 3.05355 13.3285 3.82779L12.7242 4.26127C12.3758 4.51122 11.9068 4.51122 11.5584 4.26127L10.9542 3.82779C9.92185 3.10517 9.04438 2.74386 7.75399 2.74386C6.4636 2.74386 5.58613 2.97613 4.96674 3.28582Z" fill="#FF824C"/>
</svg>
