<svg width="48" height="48" viewBox="0 0 48 48" fill="none" xmlns="http://www.w3.org/2000/svg">
<g clip-path="url(#clip0_1_49)">
<path d="M15.2073 3.64401C13.1277 3.8413 11.8202 4.17424 10.4753 4.85245C9.20517 5.49366 8.53273 5.97457 7.48672 7.01038C6.34108 8.14483 5.78072 8.95868 5.08337 10.4631C4.09962 12.5963 4 13.7061 4 23.2873C4 32.8685 4.09962 33.9783 5.08337 36.1116C6.50296 39.182 8.94367 41.3646 12.0942 42.3757C13.713 42.906 14.1115 42.9183 22.9279 42.98C33.5126 43.0539 34.6333 42.9676 36.8748 41.9442C39.9754 40.5384 42.1796 38.1215 43.2007 35.0018C43.7361 33.3988 43.7486 33.0042 43.8108 24.2738C43.8855 13.7924 43.7984 12.6826 42.7648 10.4631C42.0675 8.95868 41.5071 8.14483 40.3615 7.01038C39.2158 5.87592 38.394 5.32103 36.8748 4.63049C34.6956 3.64401 33.6122 3.55769 23.6875 3.58235C19.2668 3.58235 15.4439 3.61935 15.2073 3.64401ZM25.2067 12.5223C25.8916 13.1636 25.9165 13.3115 25.9165 17.4794V21.302L30.0383 21.339L34.1476 21.376C36.3177 21.376 36.0344 25.1833 34.1476 25.1986L30.0383 25.2356L25.9165 25.2726V29.0952C25.9165 33.2754 25.8916 33.4111 25.1818 34.077C24.8207 34.3976 24.6962 34.4469 23.9864 34.4469C23.1271 34.4469 22.7536 34.2619 22.2555 33.5961C22.0064 33.2754 21.9939 33.0782 21.9566 29.2679L21.9192 25.2726L17.8846 25.2356C14.0368 25.1986 13.8375 25.1863 13.5138 24.9397C12.8538 24.4588 12.6545 24.0642 12.6545 23.2873C12.6545 22.5105 12.8538 22.1159 13.5138 21.635C13.8375 21.3883 14.0368 21.376 17.8971 21.339L21.9317 21.302V17.4917C21.9317 13.5458 21.969 13.2375 22.4671 12.695C23.152 11.9674 24.5094 11.8811 25.2067 12.5223Z" fill="white"/>
</g>
<defs>
<clipPath id="clip0_1_49">
<rect width="48" height="48" fill="white"/>
</clipPath>
</defs>
</svg>
