<svg width="41" height="41" viewBox="0 0 41 41" fill="none" xmlns="http://www.w3.org/2000/svg">
<path d="M17.501 10.1225C16.0008 11.0601 15.2507 12.4665 15.2507 14.498C15.2507 17.6234 17.1259 19.4986 20.2513 19.4986C23.3767 19.4986 25.2519 17.6234 25.2519 14.498C25.2519 12.4665 24.5018 11.0601 23.0016 10.1225C21.5952 9.27865 18.9074 9.27865 17.501 10.1225Z" fill="#FF824C"/>
<path d="M14.1256 24.1553C11.7503 25.0304 10.7189 25.6243 9.81259 26.6869C9.09376 27.5307 9 27.9683 9 29.8435V32H20.2513H31.5026V29.8435C31.5026 27.9683 31.4088 27.5307 30.69 26.6869C29.7524 25.593 28.0647 24.6554 25.7832 23.9678C22.2828 23.0927 17.2822 22.9924 14.1256 24.1553Z" fill="#FF824C"/>
</svg>
