<svg width="71" height="71" viewBox="0 0 71 71" fill="none" xmlns="http://www.w3.org/2000/svg">
<path d="M34.2866 14.9299C30.7369 15.3816 27.5385 18.6753 27.1133 22.3077C26.762 25.2815 27.631 27.8976 29.6462 29.8362C33.011 33.1111 38.1506 33.1111 41.5154 29.8362C44.9357 26.5237 45.0466 21.0467 41.7558 17.5272C40.5541 16.2473 38.6683 15.1934 37.2817 15.0052C36.801 14.9487 36.2094 14.8734 35.9506 14.8358C35.6917 14.8169 34.9522 14.8546 34.2866 14.9299Z" fill="#FF824C"/>
<path d="M16.0205 22.4583C14.6708 22.6842 13.6355 23.2676 12.6187 24.3592C9.80851 27.3706 10.7514 32.377 14.486 34.2403C15.3734 34.692 15.7432 34.7673 17.0928 34.7673C18.4424 34.7673 18.8122 34.692 19.7181 34.2403C23.3047 32.4523 24.3216 27.7094 21.8072 24.5851C20.9753 23.5688 19.5147 22.6842 18.3869 22.5148C17.9247 22.4583 17.4256 22.383 17.2777 22.3454C17.1297 22.3266 16.5566 22.3642 16.0205 22.4583Z" fill="#FFAC88"/>
<path d="M52.9964 22.4583C51.6468 22.6842 50.6115 23.2676 49.5946 24.3592C46.7845 27.3706 47.7273 32.377 51.4619 34.2403C52.3493 34.692 52.7191 34.7673 54.0687 34.7673C55.4183 34.7673 55.7881 34.692 56.694 34.2403C60.2807 32.4523 61.2975 27.7094 58.7832 24.5851C57.9512 23.5688 56.4907 22.6842 55.3629 22.5148C54.9007 22.4583 54.4015 22.383 54.2536 22.3454C54.1057 22.3266 53.5326 22.3642 52.9964 22.4583Z" fill="#E8713F"/>
<path d="M34.379 37.4399C28.5368 37.7787 22.1585 40.1125 19.792 42.7663C18.4239 44.3096 18.3684 44.5731 18.4239 50.0501L18.4793 54.9059H35.5807H52.6821L52.7376 50.0501C52.7931 44.5731 52.7376 44.3096 51.3695 42.7663C48.5963 39.642 40.4431 37.1011 34.379 37.4399Z" fill="#FF824C"/>
<path d="M13.8019 40.4325C11.2136 41.1288 8.49588 42.6534 7.20172 44.1026C6.03698 45.4201 6 45.6459 6 50.577V55L9.64213 54.9624L13.3028 54.9059L13.3952 49.4478C13.5061 44.0649 13.5061 43.9708 13.9868 42.8227C14.2641 42.164 14.6339 41.4112 14.8373 41.1288C15.6138 39.9808 15.5583 39.9431 13.8019 40.4325Z" fill="#FFAC88"/>
<path d="M55.8251 40.3384C55.9176 40.4889 56.1209 40.8089 56.2873 41.0724C56.4722 41.3359 56.842 42.0887 57.1378 42.7663L57.6554 43.9897L57.7664 49.4478L57.8588 54.9059L61.5194 54.9624L65.1616 55V50.5394C65.1616 46.4364 65.1246 46.0223 64.7918 45.2883C64.2926 44.2531 62.9615 43.011 61.427 42.1264C59.2824 40.903 55.4554 39.6796 55.8251 40.3384Z" fill="#E8713F"/>
</svg>
