<svg width="71" height="71" viewBox="0 0 71 71" fill="none" xmlns="http://www.w3.org/2000/svg">
<path d="M32.9103 3.29559C29.1633 4.51449 27.1544 8.26147 28.2152 12.1213C29.1407 15.5974 32.82 17.8772 36.3864 17.2C41.9166 16.1843 44.1512 9.59323 40.4268 5.30451C38.779 3.40845 35.3706 2.48299 32.9103 3.29559Z" fill="#E8713F"/>
<path d="M32.0525 20.6084C31.5559 20.7213 30.3144 21.2405 29.2987 21.7145C26.0709 23.2945 23.4299 26.4998 22.5045 30.0662C22.0756 31.6914 21.8273 45.7764 22.211 46.1602C22.3464 46.2956 23.4976 46.8373 24.7842 47.3339L27.0866 48.2368L27.2446 50.8326C27.3123 52.2546 27.5606 56.5659 27.7638 60.4258C27.9669 64.263 28.1701 67.5586 28.2378 67.7166C28.3055 67.9423 29.7953 67.9875 35.1449 67.9423L41.9842 67.8746L42.368 61.4415C42.5711 57.8977 42.8194 53.4961 42.9323 51.6452L43.1129 48.2594L45.4152 47.3565C46.6793 46.8373 47.8304 46.3182 47.9659 46.1827C48.169 45.9796 48.2142 43.8804 48.1465 38.621C48.0336 30.5176 47.9433 29.8856 46.4987 27.1544C45.4152 25.1229 44.1737 23.746 42.368 22.5497C39.9527 20.947 38.5758 20.5407 35.5512 20.4504C34.1291 20.4053 32.5491 20.473 32.0525 20.6084Z" fill="#E8713F"/>
<rect x="19" y="19.3412" width="32.3622" height="32.3622" rx="3.77953" fill="#FF824C"/>
<path d="M41.8985 43.4908C41.7218 43.4908 41.5772 43.4346 41.4648 43.3222C41.3524 43.2097 41.2961 43.0652 41.2961 42.8885V27.2271C41.2961 27.0504 41.3524 26.9058 41.4648 26.7934C41.5772 26.6809 41.7218 26.6247 41.8985 26.6247H45.1272C45.3039 26.6247 45.4484 26.6809 45.5609 26.7934C45.6733 26.9058 45.7295 27.0504 45.7295 27.2271V42.8885C45.7295 43.0652 45.6733 43.2097 45.5609 43.3222C45.4484 43.4346 45.3039 43.4908 45.1272 43.4908H41.8985Z" fill="white"/>
<path d="M23.0851 43.4908C22.9566 43.4908 22.8361 43.4426 22.7237 43.3463C22.6273 43.2338 22.5791 43.1134 22.5791 42.9849C22.5791 42.9045 22.5871 42.8323 22.6032 42.768L28.2654 27.2993C28.3136 27.1226 28.41 26.97 28.5545 26.8415C28.7152 26.697 28.932 26.6247 29.2051 26.6247H32.7711C33.0441 26.6247 33.253 26.697 33.3975 26.8415C33.5582 26.97 33.6626 27.1226 33.7108 27.2993L39.3489 42.768C39.381 42.8323 39.3971 42.9045 39.3971 42.9849C39.3971 43.1134 39.3408 43.2338 39.2284 43.3463C39.132 43.4426 39.0115 43.4908 38.867 43.4908H35.9034C35.6624 43.4908 35.4777 43.4346 35.3492 43.3222C35.2367 43.1937 35.1645 43.0812 35.1323 42.9849L34.1926 40.5272H27.7594L26.8438 42.9849C26.8117 43.0812 26.7394 43.1937 26.627 43.3222C26.5145 43.4346 26.3218 43.4908 26.0487 43.4908H23.0851ZM28.7473 37.0576H33.2289L30.964 30.6967L28.7473 37.0576Z" fill="white"/>
</svg>
