<svg width="1048" height="1048" viewBox="0 0 1048 1048" fill="none" xmlns="http://www.w3.org/2000/svg">
<path d="M391.114 593.367C386.003 595.236 381.227 595.738 376.639 594.83C372.102 593.895 367.758 591.942 363.633 588.907C359.464 585.813 355.384 581.972 351.498 577.339C344.383 568.864 337.268 560.383 330.147 551.908C326.061 547.036 323.225 542.512 321.737 538.303C320.248 534.095 320.628 530.222 322.922 526.722C325.294 523.191 330.012 520.059 336.991 517.506C343.578 515.096 349.359 514.213 354.198 514.774C359.077 515.251 363.292 516.926 366.862 519.762C370.426 522.591 373.5 526.226 376.149 530.621C377.696 533.186 378.469 534.469 380.016 537.034C373.913 538.967 370.871 539.979 364.813 542.093C363.066 539.502 362.196 538.207 360.45 535.622C359.038 533.528 357.608 531.665 356.138 530.048C354.746 528.398 353.122 527.296 351.24 526.742C349.391 526.097 347.019 526.291 344.145 527.341C341.27 528.391 339.55 529.738 339.008 531.337C338.499 532.845 338.744 534.578 339.737 536.525C340.684 538.413 342.005 540.469 343.694 542.692C351.711 553.281 359.728 563.869 367.739 574.458C369.743 577.107 371.625 579.214 373.371 580.8C375.073 582.32 376.8 583.326 378.559 583.822C380.332 584.235 382.168 584.086 384.095 583.384C386.325 582.572 387.524 581.489 387.724 580.123C387.936 578.673 387.575 577.01 386.615 575.141C385.655 573.266 384.43 571.223 382.942 568.999C381.124 566.299 380.216 564.952 378.392 562.252C383.979 560.305 386.783 559.371 392.409 557.586C393.885 560.035 394.626 561.259 396.108 563.715C398.841 568.239 400.658 572.454 401.644 576.333C402.598 580.155 402.282 583.519 400.748 586.452C399.234 589.294 396.05 591.562 391.114 593.367ZM433.603 580.129C428.544 581.438 424.02 581.528 419.889 580.361C415.758 579.188 411.917 576.933 408.379 573.543C404.841 570.153 401.509 565.893 398.473 560.718C392.866 551.154 387.266 541.59 381.659 532.026C378.624 526.851 376.845 522.179 376.413 517.996C375.943 513.749 377.174 510.031 380.132 506.892C383.09 503.753 388.233 501.305 394.98 499.423C400.252 497.953 407.399 497.103 412.922 498.411C417.846 499.513 421.913 501.859 425.135 505.397C428.402 508.851 431.013 513.311 433.055 518.737C436.845 528.804 440.634 538.877 444.424 548.944C446.441 554.312 447.446 559.133 447.537 563.412C447.666 567.607 446.641 571.126 444.482 573.994C442.374 576.791 438.778 578.789 433.603 580.129ZM428.531 569.534C430.813 568.941 432.237 568.013 432.817 566.705C433.461 565.384 433.577 563.766 433.146 561.846C432.714 559.925 432.031 557.882 431.077 555.73C425.696 543.536 420.321 531.35 414.939 519.156C413.96 516.933 412.858 514.993 411.614 513.343C410.37 511.693 408.843 510.54 407.006 509.908C405.221 509.193 402.875 509.193 400.014 509.934C397.3 510.636 395.502 511.7 394.639 513.105C393.743 514.445 393.511 516.05 393.949 517.912C394.387 519.775 395.174 521.792 396.302 523.977C402.488 535.958 408.669 547.938 414.856 559.925C415.951 562.046 417.124 563.96 418.362 565.674C419.663 567.369 421.139 568.58 422.77 569.309C424.4 570.031 426.314 570.108 428.531 569.534ZM458.628 573.233C449.522 546.224 440.551 519.169 431.702 492.076C437.883 490.858 444.102 489.743 450.321 488.737C460.188 506.724 469.397 524.995 477.962 543.633C477.562 523.958 477.93 504.366 479.064 484.722C485.109 484.013 491.174 483.401 497.238 482.892C501.511 510.604 505.642 538.336 509.625 566.093C505.629 566.421 503.637 566.608 499.648 567.027C496.007 547.822 492.295 528.636 488.505 509.463C487.648 529.12 487.532 548.718 488.151 568.381C484.935 568.8 483.324 569.025 480.114 569.502C471.517 550.754 462.25 532.394 452.319 514.316C457.674 533.354 463.101 552.372 468.591 571.365C464.602 572.073 462.604 572.447 458.628 573.233ZM515.857 565.616C513.079 537.775 510.301 509.934 507.524 482.093C514.709 481.597 518.306 481.397 525.504 481.113C526.716 509.038 527.921 536.969 529.133 564.894C523.816 565.107 521.161 565.249 515.857 565.616ZM553.951 565.719C549.118 565.648 545.341 564.495 542.486 562.174C539.637 559.854 537.498 556.593 536.099 552.346C534.765 548.028 533.985 542.944 533.863 537.079C533.67 527.695 533.476 518.306 533.277 508.922C533.154 502.916 533.799 497.721 535.326 493.332C536.847 488.944 539.65 485.567 543.762 483.247C547.957 480.856 553.79 479.657 561.13 479.786C567.975 479.908 573.343 481.075 577.12 483.182C580.896 485.29 583.339 488.241 584.479 491.986C585.704 495.665 585.878 500.093 585.079 505.249C584.808 506.982 584.679 507.852 584.409 509.586C578.061 509.193 574.883 509.038 568.535 508.819C568.722 506.918 568.819 505.964 569.012 504.056C569.283 501.369 569.283 499.049 568.999 497.103C568.8 495.156 568.071 493.68 566.808 492.675C565.635 491.605 563.56 491.025 560.615 490.974C557.509 490.916 555.201 491.554 553.713 492.856C552.308 494.157 551.373 495.885 550.903 498.024C550.51 500.164 550.271 502.51 550.181 505.068C549.756 516.772 549.324 528.482 548.898 540.185C548.795 543.085 548.931 545.605 549.304 547.751C549.678 549.891 550.445 551.554 551.592 552.739C552.752 553.854 554.422 554.421 556.638 554.467C558.92 554.512 560.705 553.938 562.033 552.733C563.36 551.528 564.366 549.833 565.042 547.642C565.79 545.451 566.331 542.84 566.647 539.805C566.976 536.66 567.137 535.087 567.466 531.942C563.857 531.807 562.052 531.762 558.437 531.691C558.707 527.837 558.849 525.91 559.12 522.063C567.002 522.217 574.883 522.54 582.752 523.036C580.548 537.176 578.338 551.309 576.134 565.448C572.679 565.229 570.946 565.139 567.485 564.984C567.478 561.659 567.466 559.996 567.433 556.671C566.112 559.384 564.346 561.601 562.162 563.328C560.054 564.978 557.334 565.764 553.951 565.719ZM577.655 565.539C587.405 537.62 598.593 510.391 611.186 483.64C617.663 484.271 624.146 485.019 630.598 485.876C629.089 514.316 626.015 542.48 621.362 570.578C616.413 569.766 613.938 569.392 608.976 568.716C609.917 562.245 610.774 555.762 611.541 549.272C606.011 548.557 603.246 548.235 597.704 547.674C595.152 553.938 592.677 560.235 590.293 566.563C585.24 566.073 582.714 565.874 577.655 565.539ZM601.455 538.181C605.94 538.651 608.183 538.909 612.662 539.476C613.983 527.67 615.105 515.869 616.039 504.024C610.999 515.335 606.14 526.716 601.455 538.181ZM623.573 570.939C633.975 543.775 644.499 516.662 655.152 489.595C661.384 490.658 667.616 491.831 673.809 493.107C670.213 512.731 665.908 532.129 660.868 551.431C674.105 533.689 687.91 516.449 702.301 499.629C708.262 501.131 714.211 502.735 720.12 504.437C704.911 530.531 689.586 556.548 674.131 582.494C670.232 581.367 668.28 580.825 664.368 579.788C674.26 561.517 684.088 543.214 693.846 524.873C679.68 541.803 666.082 559.126 653.038 576.933C649.854 576.172 648.262 575.811 645.072 575.109C650.164 555.71 654.507 536.215 658.116 516.488C649.874 535.21 641.689 553.964 633.575 572.744C629.579 571.977 627.575 571.616 623.573 570.939ZM680.196 584.293C696.842 558.662 713.489 533.025 730.142 507.395C735.968 509.161 741.781 511.023 747.549 512.976C729.381 538.123 711.214 563.27 693.046 588.417C687.923 586.684 685.351 585.865 680.196 584.293Z" fill="white"/>
<path d="M483.717 760.058C483.898 757.403 484.053 754.715 484.175 752.015C486.237 706.38 477.879 679.248 459.318 671.379C455.509 669.768 451.275 668.95 446.725 668.95C428.293 668.95 403.571 682.451 373.249 709.068C369.692 712.187 366.276 715.3 363.047 718.329C367.481 708.572 371.909 697.951 375.324 687.833C384.051 661.957 386.841 630.862 387.569 620.234C392.416 617.882 403.552 613.087 422.209 608.234C446.28 601.97 488.151 594.32 550.884 593.47C551.844 593.463 552.849 593.463 553.855 593.463C641.406 593.463 687.756 612.159 697.99 616.845C700.664 624.694 708.965 648.378 716.995 664.445C720.553 671.56 727.023 681.807 734.17 692.447C733.107 691.583 732.031 690.72 730.948 689.856C696.218 662.138 669.479 648.082 651.472 648.082C644.957 648.082 639.414 649.861 634.98 653.367C619.674 665.489 619.036 693.613 633.079 736.96C634.258 740.602 635.489 744.191 636.746 747.697C634.078 744.501 631.294 741.253 628.42 737.992C597.466 702.907 571.713 685.113 551.87 685.113C550.349 685.113 548.834 685.216 547.378 685.422C527.309 688.252 507.086 710.789 487.262 752.402C486.037 754.967 484.858 757.525 483.717 760.058Z" fill="#FF6C18"/>
<path d="M553.855 599.914C604.851 599.914 641.116 606.359 662.557 611.766C677.547 615.549 687.569 619.358 692.808 621.594C696.172 631.3 703.687 652.149 711.06 666.984C686.286 649.964 666.662 641.637 651.472 641.637C643.468 641.637 636.578 643.88 630.984 648.314C615.466 660.604 612.417 684.546 621.794 721.255C594.276 692.628 571.313 678.668 551.87 678.668C550.046 678.668 548.228 678.791 546.476 679.042C533.315 680.898 520.329 689.773 507.872 705.42C502.175 712.58 496.465 721.274 490.819 731.392C489.717 694.87 480.16 673.223 461.831 665.444C457.223 663.491 452.138 662.499 446.718 662.499C428.68 662.499 406.62 673.255 379.52 695.309C380.184 693.491 380.815 691.687 381.421 689.889C389.483 665.979 392.609 637.835 393.698 624.501C399.415 622 409.533 618.134 424.761 614.222C448.388 608.151 489.447 600.746 550.909 599.908C551.902 599.914 552.882 599.914 553.855 599.914ZM553.855 587.025C552.843 587.025 551.825 587.025 550.8 587.032C426.92 588.714 381.357 616.219 381.357 616.219C381.357 616.219 379.533 655.197 369.215 685.777C358.897 716.357 338.693 752.434 338.693 752.434C338.693 752.434 406.162 675.394 446.718 675.394C450.315 675.394 453.692 676 456.798 677.315C494.95 693.491 470.055 814 470.055 814C470.055 814 505.378 697.848 548.274 691.803C549.446 691.635 550.652 691.558 551.87 691.558C595.062 691.558 662.911 792.945 662.911 792.945C662.911 792.945 607.693 683.193 638.982 658.419C642.379 655.732 646.619 654.527 651.472 654.527C691.281 654.527 772.522 735.265 772.522 735.265C772.522 735.265 733.468 682.986 722.763 661.571C713.315 642.675 703.236 612.23 703.236 612.23C703.236 612.23 656.699 587.025 553.855 587.025Z" fill="#E95C00"/>
<path d="M320.351 500.447C312.908 496.774 292.491 486.914 279.421 482.641C278.248 482.254 277.075 481.88 275.902 481.513C321.672 480.102 345.479 471.169 348.547 454.31C349.314 450.089 350.744 442.239 307.939 392.248C302.512 385.913 297.047 379.681 291.943 373.951C319.739 387.653 359.09 404.222 386.802 404.222C397.165 404.222 405.498 401.895 411.569 397.313C427.513 385.281 430.246 356.106 419.683 310.607C418.226 304.33 416.622 298.194 414.985 292.362C417.679 295.881 420.527 299.483 423.511 303.099C451.249 336.708 475.919 353.747 496.826 353.747C498.031 353.747 499.242 353.689 500.422 353.58C521.87 351.517 542.615 330.559 562.091 291.292C565.9 283.616 569.27 276.005 572.17 268.987C572.551 276.875 573.182 285.53 574.194 294.398C579.227 338.519 591.163 365.038 609.659 373.217C614.08 375.169 619.094 376.162 624.559 376.162C650.305 376.162 684.114 353.631 708.436 334.252C705.846 339.079 703.229 344.19 700.722 349.442C682.6 387.421 679.719 413.412 692.17 426.695C698.518 433.461 709.1 436.89 723.626 436.89C744.121 436.89 770.247 430.233 792.159 423.195C785.979 428.17 779.914 433.371 774.752 438.379C759.433 453.234 747.665 473.09 742.496 482.583C735.092 479.554 720.604 474.185 699.504 468.798C670.845 461.483 623.966 452.763 563.354 452.763C548.022 452.763 532.297 453.317 516.624 454.42C459.021 457.062 408.018 469.771 375.369 479.966C346.916 488.847 327.415 497.251 320.351 500.447Z" fill="#FF6C18"/>
<path d="M567.723 294.45C567.749 294.675 567.775 294.895 567.801 295.114C569.998 314.396 573.556 330.688 578.363 343.533C585.175 361.726 594.83 373.694 607.062 379.101C612.308 381.421 618.198 382.6 624.565 382.6C642.191 382.6 664.49 373.404 690.984 355.23C674.995 391.713 673.861 416.583 687.478 431.103C695.089 439.217 707.257 443.335 723.639 443.335C736.728 443.335 751.976 440.731 766.999 437.051C754.973 449.618 745.358 464.634 739.641 474.533C731.237 471.343 718.29 466.935 701.109 462.553C672.095 455.148 624.643 446.319 563.367 446.319C547.906 446.319 532.058 446.879 516.263 447.981C458.009 450.662 406.458 463.507 373.455 473.812C347.863 481.803 329.348 489.446 320.493 493.339C316.465 491.38 310.658 488.602 304.394 485.779C335.67 481.565 351.962 471.653 354.907 455.464C356.37 447.446 354.405 437.058 316.355 392.164C340.059 402.121 366.36 410.667 386.821 410.667C398.615 410.667 408.256 407.908 415.474 402.463C432.746 389.431 436.845 361.771 427.932 318.05C436.819 327.872 445.468 336.037 453.743 342.418C469.042 354.218 483.543 360.198 496.851 360.198C498.263 360.198 499.68 360.134 501.06 359.999C514.941 358.665 528.456 350.57 541.216 335.941C550.297 325.507 559.216 311.554 567.723 294.45ZM578.338 233C578.338 233 545.824 342.74 499.816 347.161C498.83 347.258 497.837 347.303 496.838 347.303C451.287 347.303 394.317 250.684 394.317 250.684C394.317 250.684 440.802 367.191 407.702 392.17C402.469 396.115 395.264 397.777 386.815 397.777C341.812 397.777 261.917 350.583 261.917 350.583C261.917 350.583 344.86 438.662 342.224 453.15C338.899 471.395 297.221 475.262 262.459 475.262C236.854 475.262 215 473.161 215 473.161C215 473.161 246.237 478.561 277.43 488.763C293.026 493.861 320.261 507.595 320.261 507.595C320.261 507.595 406.768 465.878 516.997 460.845C533.238 459.704 548.686 459.202 563.354 459.202C679.39 459.202 745.442 490.871 745.442 490.871C745.442 490.871 759.407 462.237 779.244 443C799.081 423.762 833.418 401.006 833.418 401.006C833.418 401.006 765.375 430.439 723.633 430.439C711.981 430.439 702.378 428.145 696.874 422.28C671.663 395.393 735.111 302.306 735.111 302.306C735.111 302.306 666.636 369.704 624.565 369.704C620.138 369.704 616 368.957 612.269 367.307C573.079 349.984 578.338 233 578.338 233Z" fill="#E95C00"/>
</svg>
